<svg width="70" height="76" viewBox="0 0 70 76" fill="none" xmlns="http://www.w3.org/2000/svg">
<path d="M0 10C0 4.47715 4.47715 0 10 0H60C65.5229 0 70 4.47715 70 10V66C70 71.5229 65.5229 76 60 76H10C4.47715 76 0 71.5229 0 66V10Z" fill="#FFDCD1"/>
<path d="M35.0003 51.3333C27.6365 51.3333 21.667 45.3638 21.667 38C21.667 30.6362 27.6365 24.6666 35.0003 24.6666C42.3641 24.6666 48.3337 30.6362 48.3337 38C48.3256 45.3604 42.3608 51.3252 35.0003 51.3333ZM35.0003 27.3333C29.1093 27.3333 24.3337 32.1089 24.3337 38C24.3337 43.891 29.1093 48.6666 35.0003 48.6666C40.8914 48.6666 45.667 43.891 45.667 38C45.6604 32.1117 40.8886 27.3399 35.0003 27.3333ZM40.3337 44.6666H29.667V42H40.3337V44.6666ZM30.3337 38C29.2291 38 28.3337 37.1045 28.3337 36C28.3337 34.8954 29.2291 34 30.3337 34C31.4382 34 32.3337 34.8954 32.3337 36C32.3337 37.1045 31.4382 38 30.3337 38ZM39.6577 37.9813C38.5582 37.9813 37.667 37.09 37.667 35.9906C37.667 34.8912 38.5582 34 39.6577 34C40.7571 34 41.6483 34.8912 41.6483 35.9906C41.6469 37.0894 40.7565 37.9798 39.6577 37.9813Z" fill="#E74040"/>
</svg>
