<svg width="70" height="76" viewBox="0 0 70 76" fill="none" xmlns="http://www.w3.org/2000/svg">
<path d="M0 10C0 4.47715 4.47715 0 10 0H60C65.5229 0 70 4.47715 70 10V66C70 71.5229 65.5229 76 60 76H10C4.47715 76 0 71.5229 0 66V10Z" fill="white"/>
<path d="M45.667 48.6667H24.3337C22.8609 48.6667 21.667 47.4728 21.667 46V30C21.667 28.5273 22.8609 27.3334 24.3337 27.3334H45.667C47.1398 27.3334 48.3337 28.5273 48.3337 30V46C48.3337 47.4728 47.1398 48.6667 45.667 48.6667ZM24.3337 38V46H45.667V38H24.3337ZM24.3337 30V32.6667H45.667V30H24.3337ZM36.3337 43.3334H27.0003V40.6667H36.3337V43.3334Z" fill="#23A6F0"/>
</svg>
