<svg width="70" height="76" viewBox="0 0 70 76" fill="none" xmlns="http://www.w3.org/2000/svg">
<path d="M0 10C0 4.47715 4.47715 0 10 0H60C65.5229 0 70 4.47715 70 10V66C70 71.5229 65.5229 76 60 76H10C4.47715 76 0 71.5229 0 66V10Z" fill="#B9EAA8"/>
<path d="M19.4434 39.4201L26.9837 46.9605L28.8637 45.0672L21.33 37.5335L19.4434 39.4201ZM48.6627 29.0415L34.5304 43.1872L28.8813 37.5247L26.9746 39.4047L34.5304 46.9605L50.5561 30.9349L48.6627 29.0415ZM43.0115 30.9328L41.1315 29.0394L32.6371 37.5338L34.5304 39.4138L43.0115 30.9328Z" fill="#2DC071"/>
</svg>
